<svg xmlns="http://www.w3.org/2000/svg" viewBox="-16 -4 78 85" fill="#027963">
  <path d="M30.57,0c2.69,1.61,5.97,1.81,8.88,3.22,17.97,8.69,19.4,33.66,3.59,45.53-2.04,1.53-9.41,4.51-9.71,5.52-1.44,4.8,7.41,2.46,8,3.06v11.65c-1.97.24-6.61-.75-7.67.84l-.39,7.22h-12.54v-8.07s-7.17,0-7.17,0v-11.65s7.17,0,7.17,0c.72-6.05-.54-3.71-4.08-5.33C-.63,44.08-5.87,22.08,7.69,8.03,11.93,3.63,17.93,2.11,23.4,0h7.17ZM33.26,43.89c1.66,1.78,9.3-7.17,10.21-9.05,3.88-8.08.84-18.83-7.05-23.23C19.53,2.19,1.46,20.84,11.9,37.04c1.87,2.89,7.96,8.64,11.53,6.44.3-.19,2.66-4.25,2.64-4.51-.09-1.74-5.51-1.21-7.2-1.73-2.06-.63-5.55-4.38-6.03-6.5-3.05-13.38,15.02-22.27,22.09-10.45,1.04,1.73,5.23,10.82,5.43,12.49.12,1.02.11,2.04.08,3.06-5.36-1.19-7.14,3.45-7.17,8.06Z" />
</svg>
